<?xml version="1.0" encoding="utf-8"?>
<!-- Generator: Adobe Illustrator 20.1.0, SVG Export Plug-In . SVG Version: 6.00 Build 0)  -->
<svg version="1.1" id="Layer_1" xmlns="http://www.w3.org/2000/svg" xmlns:xlink="http://www.w3.org/1999/xlink" x="0px" y="0px"
	 viewBox="0 0 300 102.3" style="enable-background:new 0 0 300 102.3;" xml:space="preserve">
<style type="text/css">
	.st0{fill:#FFFFFF;}
</style>
<g>
	<path class="st0" d="M6.8,25.9c-0.9,0-1.6-0.7-1.6-1.6c0-0.5-0.4-1-1-1c-0.9,0-1.6-0.7-1.6-1.6v-6.1c0-0.5-0.4-1-1-1
		c-0.9,0-1.6-0.7-1.6-1.6V4.2c0-0.9,0.7-1.6,1.6-1.6s1.6,0.7,1.6,1.6v8.7c0,0.5,0.4,1,1,1c0.9,0,1.6,0.7,1.6,1.6v6.1
		c0,0.5,0.4,1,1,1h4.5c0.5,0,1-0.4,1-1v-6.1c0-0.9,0.7-1.6,1.6-1.6c0.5,0,1-0.4,1-1V4.2c0-0.9,0.7-1.6,1.6-1.6
		c0.9,0,1.6,0.7,1.6,1.6v8.7c0,0.9-0.7,1.6-1.6,1.6c-0.5,0-1,0.4-1,1v6.1c0,0.9-0.7,1.6-1.6,1.6c-0.5,0-1,0.4-1,1
		c0,0.9-0.7,1.6-1.6,1.6H6.8z"/>
	<path class="st0" d="M25.9,2.9c0,0.9-0.7,1.6-1.6,1.6c-0.9,0-1.6-0.7-1.6-1.6V1.6c0-0.9,0.7-1.6,1.6-1.6c0.9,0,1.6,0.7,1.6,1.6V2.9
		z M22.7,9.4c0-0.9,0.7-1.6,1.6-1.6c0.9,0,1.6,0.7,1.6,1.6v14.9c0,0.9-0.7,1.6-1.6,1.6c-0.9,0-1.6-0.7-1.6-1.6V9.4z"/>
	<path class="st0" d="M34.3,25.9c-0.9,0-1.6-0.7-1.6-1.6c0-0.5-0.4-1-1-1c-0.9,0-1.6-0.7-1.6-1.6c0-0.9,0.7-1.6,1.6-1.6
		c0.9,0,1.6,0.7,1.6,1.6c0,0.5,0.4,1,1,1h6.5c0.5,0,1-0.4,1-1v-2.3c0-0.5-0.4-1-1-1h-6.5c-0.9,0-1.6-0.7-1.6-1.6c0-0.5-0.4-1-1-1
		c-0.9,0-1.6-0.7-1.6-1.6V12c0-0.9,0.7-1.6,1.6-1.6c0.5,0,1-0.4,1-1c0-0.9,0.7-1.6,1.6-1.6h6.5c0.9,0,1.6,0.7,1.6,1.6
		c0,0.5,0.4,1,1,1c0.9,0,1.6,0.7,1.6,1.6c0,0.9-0.7,1.6-1.6,1.6s-1.6-0.7-1.6-1.6c0-0.5-0.4-1-1-1h-6.5c-0.5,0-1,0.4-1,1v2.3
		c0,0.5,0.4,1,1,1h6.5c0.9,0,1.6,0.7,1.6,1.6c0,0.5,0.4,1,1,1c0.9,0,1.6,0.7,1.6,1.6v2.3c0,0.9-0.7,1.6-1.6,1.6c-0.5,0-1,0.4-1,1
		c0,0.9-0.7,1.6-1.6,1.6H34.3z"/>
	<path class="st0" d="M53.1,25.9c-0.9,0-1.6-0.7-1.6-1.6c0-0.5-0.4-1-1-1c-0.9,0-1.6-0.7-1.6-1.6V9.4c0-0.9,0.7-1.6,1.6-1.6
		c0.9,0,1.6,0.7,1.6,1.6v12.3c0,0.5,0.4,1,1,1h5.8c0.9,0,1.5,0.7,1.6,1.5c0.1-0.8,0.6-1.4,1.5-1.5c-0.8-0.1-1.5-0.8-1.5-1.6V9.4
		c0-0.9,0.7-1.6,1.6-1.6c0.9,0,1.6,0.7,1.6,1.6v14.9c0,0.9-0.7,1.6-1.6,1.6H53.1z"/>
	<path class="st0" d="M72.2,25.9c-0.9,0-1.6-0.7-1.6-1.6c0-0.5-0.4-1-1-1c-0.9,0-1.6-0.7-1.6-1.6v-2.3c0-0.9,0.7-1.6,1.6-1.6
		c0.5,0,1-0.4,1-1c0-0.9,0.7-1.6,1.6-1.6h6.5c0.5,0,1-0.4,1-1V12c0-0.5-0.4-1-1-1h-6.5c-0.5,0-1,0.4-1,1c0,0.9-0.7,1.6-1.6,1.6
		c-0.9,0-1.6-0.7-1.6-1.6c0-0.9,0.7-1.6,1.6-1.6c0.5,0,1-0.4,1-1c0-0.9,0.7-1.6,1.6-1.6h6.5c0.9,0,1.6,0.7,1.6,1.6c0,0.5,0.4,1,1,1
		c0.9,0,1.6,0.7,1.6,1.6v12.3c0,0.9-0.7,1.6-1.6,1.6H72.2z M79.6,17.6c-0.1,0.5-0.5,0.8-1,0.8h-6.5c-0.5,0-1,0.4-1,1v2.3
		c0,0.5,0.4,1,1,1H78c0.9,0,1.6,0.7,1.6,1.5c0-0.7,0.6-1.4,1.5-1.5c-0.8-0.1-1.5-0.8-1.5-1.6V17.6z"/>
	<path class="st0" d="M87.7,1.6c0-0.9,0.7-1.6,1.6-1.6c0.9,0,1.6,0.7,1.6,1.6v22.7c0,0.9-0.7,1.6-1.6,1.6c-0.9,0-1.6-0.7-1.6-1.6
		V1.6z"/>
	<path class="st0" d="M99.4,2.9c0,0.9-0.7,1.6-1.6,1.6c-0.9,0-1.6-0.7-1.6-1.6V1.6c0-0.9,0.7-1.6,1.6-1.6c0.9,0,1.6,0.7,1.6,1.6V2.9
		z M96.1,9.4c0-0.9,0.7-1.6,1.6-1.6c0.9,0,1.6,0.7,1.6,1.6v14.9c0,0.9-0.7,1.6-1.6,1.6c-0.9,0-1.6-0.7-1.6-1.6V9.4z"/>
	<path class="st0" d="M105.2,25.9c-0.9,0-1.6-0.7-1.6-1.6v-4.9c0-0.9,0.7-1.6,1.6-1.6c0.5,0,1-0.4,1-1c0-0.9,0.7-1.6,1.6-1.6h5.2
		c0.5,0,1-0.4,1-1v-1.6c0-0.8,0.6-1.5,1.5-1.6c-0.8-0.1-1.4-0.7-1.5-1.5c-0.1,0.8-0.8,1.5-1.6,1.5h-7.1c-0.9,0-1.6-0.7-1.6-1.6
		c0-0.9,0.7-1.6,1.6-1.6h10.4c0.9,0,1.6,0.7,1.6,1.6v4.9c0,0.9-0.7,1.6-1.6,1.6c-0.5,0-1,0.4-1,1c0,0.9-0.7,1.6-1.6,1.6h-5.2
		c-0.5,0-1,0.4-1,1V21c0,0.9-0.7,1.5-1.5,1.6c0.8,0.1,1.4,0.7,1.5,1.5c0.1-0.8,0.7-1.5,1.6-1.5h7.1c0.9,0,1.6,0.7,1.6,1.6
		s-0.7,1.6-1.6,1.6H105.2z"/>
	<path class="st0" d="M124.6,2.9c0,0.9-0.7,1.6-1.6,1.6c-0.9,0-1.6-0.7-1.6-1.6V1.6c0-0.9,0.7-1.6,1.6-1.6c0.9,0,1.6,0.7,1.6,1.6
		V2.9z M121.4,9.4c0-0.9,0.7-1.6,1.6-1.6c0.9,0,1.6,0.7,1.6,1.6v14.9c0,0.9-0.7,1.6-1.6,1.6c-0.9,0-1.6-0.7-1.6-1.6V9.4z"/>
	<path class="st0" d="M141.4,12c0-0.5-0.4-1-1-1h-5.8c-0.9,0-1.5-0.6-1.6-1.4c-0.1,0.7-0.7,1.3-1.5,1.4c0.8,0.1,1.5,0.8,1.5,1.6
		v11.6c0,0.9-0.7,1.6-1.6,1.6c-0.9,0-1.6-0.7-1.6-1.6V9.4c0-0.9,0.7-1.6,1.6-1.6h9.1c0.9,0,1.6,0.7,1.6,1.6c0,0.5,0.4,1,1,1
		c0.9,0,1.6,0.7,1.6,1.6v12.3c0,0.9-0.7,1.6-1.6,1.6c-0.9,0-1.6-0.7-1.6-1.6V12z"/>
	<path class="st0" d="M153.4,33.7c-0.9,0-1.6-0.7-1.6-1.6c0-0.5-0.4-1-1-1c-0.9,0-1.6-0.7-1.6-1.6s0.7-1.6,1.6-1.6
		c0.9,0,1.6,0.7,1.6,1.6c0,0.5,0.4,1,1,1h6.5c0.5,0,1-0.4,1-1v-1.9c0-0.9,0.6-1.5,1.5-1.6c-0.8-0.1-1.4-0.7-1.5-1.5
		c-0.1,0.8-0.8,1.5-1.6,1.5h-5.8c-0.9,0-1.6-0.7-1.6-1.6c0-0.5-0.4-1-1-1c-0.9,0-1.6-0.7-1.6-1.6V12c0-0.9,0.7-1.6,1.6-1.6
		c0.5,0,1-0.4,1-1c0-0.9,0.7-1.6,1.6-1.6h9.1c0.9,0,1.6,0.7,1.6,1.6v20.1c0,0.9-0.7,1.6-1.6,1.6c-0.5,0-1,0.4-1,1
		c0,0.9-0.7,1.6-1.6,1.6H153.4z M160.8,12.6c0-0.8,0.6-1.5,1.5-1.6c-0.8-0.1-1.4-0.7-1.5-1.5c-0.1,0.8-0.8,1.5-1.6,1.5h-5.8
		c-0.5,0-1,0.4-1,1v9.7c0,0.5,0.4,1,1,1h6.5c0.5,0,1-0.4,1-1V12.6z"/>
	<path class="st0" d="M5.5,54.1c-0.9,0-1.5-0.6-1.6-1.5c-0.1,0.8-0.7,1.4-1.5,1.5c0.8,0.1,1.5,0.8,1.5,1.6v6.8
		c0,0.9-0.7,1.6-1.6,1.6c-0.9,0-1.6-0.7-1.6-1.6V42.4c0-0.9,0.7-1.6,1.6-1.6h11.6c0.9,0,1.6,0.7,1.6,1.6c0,0.5,0.4,1,1,1
		c0.9,0,1.6,0.7,1.6,1.6v4.9c0,0.9-0.7,1.6-1.6,1.6c-0.5,0-1,0.4-1,1c0,0.9-0.7,1.6-1.6,1.6H5.5z M14.9,45c0-0.5-0.4-1-1-1H5.5
		c-0.9,0-1.5-0.6-1.6-1.5C3.8,43.3,3.2,44,2.4,44c0.8,0.1,1.5,0.8,1.5,1.6v4.2c0,0.5,0.4,1,1,1h9.1c0.5,0,1-0.4,1-1V45z"/>
	<path class="st0" d="M22.3,39.8c0-0.9,0.7-1.6,1.6-1.6c0.9,0,1.6,0.7,1.6,1.6v22.7c0,0.9-0.7,1.6-1.6,1.6c-0.9,0-1.6-0.7-1.6-1.6
		V39.8z"/>
	<path class="st0" d="M34,64.1c-0.9,0-1.6-0.7-1.6-1.6c0-0.5-0.4-1-1-1c-0.9,0-1.6-0.7-1.6-1.6v-2.3c0-0.9,0.7-1.6,1.6-1.6
		c0.5,0,1-0.4,1-1c0-0.9,0.7-1.6,1.6-1.6h6.5c0.5,0,1-0.4,1-1v-2.3c0-0.5-0.4-1-1-1H34c-0.5,0-1,0.4-1,1c0,0.9-0.7,1.6-1.6,1.6
		c-0.9,0-1.6-0.7-1.6-1.6s0.7-1.6,1.6-1.6c0.5,0,1-0.4,1-1c0-0.9,0.7-1.6,1.6-1.6h6.5c0.9,0,1.6,0.7,1.6,1.6c0,0.5,0.4,1,1,1
		c0.9,0,1.6,0.7,1.6,1.6v12.3c0,0.9-0.7,1.6-1.6,1.6H34z M41.4,55.8c-0.1,0.5-0.5,0.8-1,0.8H34c-0.5,0-1,0.4-1,1v2.3
		c0,0.5,0.4,1,1,1h5.8c0.9,0,1.6,0.7,1.6,1.5c0-0.7,0.6-1.4,1.5-1.5c-0.8-0.1-1.5-0.8-1.5-1.6V55.8z"/>
	<path class="st0" d="M64.1,47.6v20.1c0,0.9-0.7,1.6-1.6,1.6c-0.5,0-1,0.4-1,1c0,0.9-0.7,1.6-1.6,1.6h-6.5c-0.9,0-1.6-0.7-1.6-1.6
		c0-0.5-0.4-1-1-1c-0.9,0-1.6-0.7-1.6-1.6c0-0.9,0.7-1.6,1.6-1.6s1.6,0.7,1.6,1.6c0,0.5,0.4,1,1,1h6.5c0.5,0,1-0.4,1-1v-1.9
		c0-0.9,0.6-1.5,1.5-1.6c-0.8-0.1-1.4-0.7-1.5-1.5c-0.1,0.8-0.8,1.5-1.6,1.5h-5.8c-0.9,0-1.6-0.7-1.6-1.6c0-0.5-0.4-1-1-1
		c-0.9,0-1.6-0.7-1.6-1.6V47.6c0-0.9,0.7-1.6,1.6-1.6s1.6,0.7,1.6,1.6v12.3c0,0.5,0.4,1,1,1h6.5c0.5,0,1-0.4,1-1V47.6
		c0-0.9,0.7-1.6,1.6-1.6C63.4,46,64.1,46.7,64.1,47.6z"/>
	<path class="st0" d="M73.1,64.1c-0.9,0-1.6-0.7-1.6-1.6c0-0.5-0.4-1-1-1c-0.9,0-1.6-0.7-1.6-1.6v-9.7c0-0.9,0.7-1.6,1.6-1.6
		c0.5,0,1-0.4,1-1c0-0.9,0.7-1.6,1.6-1.6h6.5c0.9,0,1.6,0.7,1.6,1.6c0,0.5,0.4,1,1,1c0.9,0,1.6,0.7,1.6,1.6v2.3
		c0,0.9-0.7,1.6-1.6,1.6c-0.5,0-1,0.4-1,1c0,0.9-0.7,1.6-1.6,1.6h-5.8c-0.9,0-1.5-0.6-1.6-1.5c-0.1,0.8-0.7,1.4-1.5,1.5
		c0.8,0.1,1.5,0.8,1.5,1.6v1.6c0,0.5,0.4,1,1,1h6.5c0.5,0,1-0.4,1-1c0-0.9,0.7-1.6,1.6-1.6c0.9,0,1.6,0.7,1.6,1.6
		c0,0.9-0.7,1.6-1.6,1.6c-0.5,0-1,0.4-1,1c0,0.9-0.7,1.6-1.6,1.6H73.1z M80.6,50.2c0-0.5-0.4-1-1-1h-6.5c-0.5,0-1,0.4-1,1v2.3
		c0,0.5,0.4,1,1,1h6.5c0.5,0,1-0.4,1-1V50.2z"/>
	<path class="st0" d="M88,47.6c0-0.9,0.7-1.6,1.6-1.6h7.8c0.9,0,1.6,0.7,1.6,1.6c0,0.9-0.7,1.6-1.6,1.6h-4.5c-0.9,0-1.5-0.6-1.6-1.4
		c-0.1,0.7-0.7,1.3-1.5,1.4c0.8,0.1,1.5,0.8,1.5,1.6v11.6c0,0.9-0.7,1.6-1.6,1.6c-0.9,0-1.6-0.7-1.6-1.6V47.6z"/>
	<path class="st0" d="M112.3,42.4c0-0.9,0.7-1.6,1.6-1.6c0.9,0,1.6,0.7,1.6,1.6v20.1c0,0.9-0.7,1.6-1.6,1.6c-0.9,0-1.6-0.7-1.6-1.6
		V42.4z"/>
	<path class="st0" d="M132.4,50.2c0-0.5-0.4-1-1-1h-5.8c-0.9,0-1.5-0.6-1.6-1.4c-0.1,0.7-0.7,1.3-1.5,1.4c0.8,0.1,1.5,0.8,1.5,1.6
		v11.6c0,0.9-0.7,1.6-1.6,1.6c-0.9,0-1.6-0.7-1.6-1.6V47.6c0-0.9,0.7-1.6,1.6-1.6h9.1c0.9,0,1.6,0.7,1.6,1.6c0,0.5,0.4,1,1,1
		c0.9,0,1.6,0.7,1.6,1.6v12.3c0,0.9-0.7,1.6-1.6,1.6s-1.6-0.7-1.6-1.6V50.2z"/>
	<path class="st0" d="M146.3,64.1c-0.9,0-1.6-0.7-1.6-1.6c0-0.5-0.4-1-1-1c-0.9,0-1.6-0.7-1.6-1.6V48.4c-0.1,0.5-0.5,0.8-1,0.8h-1.3
		c-0.9,0-1.6-0.7-1.6-1.6c0-0.9,0.7-1.6,1.6-1.6h1.3c0.5,0,1-0.4,1-1v-2.6c0-0.9,0.7-1.6,1.6-1.6c0.9,0,1.6,0.7,1.6,1.6V46h4.9
		c0.9,0,1.6,0.7,1.6,1.6c0,0.9-0.7,1.6-1.6,1.6h-3.2c-0.9,0-1.5-0.6-1.6-1.5c-0.1,0.8-0.7,1.4-1.5,1.5c0.8,0.1,1.5,0.8,1.5,1.6v9.1
		c0,0.5,0.4,1,1,1h3.9c0.9,0,1.6,0.7,1.6,1.6s-0.7,1.6-1.6,1.6H146.3z"/>
	<path class="st0" d="M158.6,64.1c-0.9,0-1.6-0.7-1.6-1.6c0-0.5-0.4-1-1-1c-0.9,0-1.6-0.7-1.6-1.6v-9.7c0-0.9,0.7-1.6,1.6-1.6
		c0.5,0,1-0.4,1-1c0-0.9,0.7-1.6,1.6-1.6h6.5c0.9,0,1.6,0.7,1.6,1.6c0,0.5,0.4,1,1,1c0.9,0,1.6,0.7,1.6,1.6v2.3
		c0,0.9-0.7,1.6-1.6,1.6c-0.5,0-1,0.4-1,1c0,0.9-0.7,1.6-1.6,1.6h-5.8c-0.9,0-1.5-0.6-1.6-1.5c-0.1,0.8-0.7,1.4-1.5,1.5
		c0.8,0.1,1.5,0.8,1.5,1.6v1.6c0,0.5,0.4,1,1,1h6.5c0.5,0,1-0.4,1-1c0-0.9,0.7-1.6,1.6-1.6c0.9,0,1.6,0.7,1.6,1.6
		c0,0.9-0.7,1.6-1.6,1.6c-0.5,0-1,0.4-1,1c0,0.9-0.7,1.6-1.6,1.6H158.6z M166,50.2c0-0.5-0.4-1-1-1h-6.5c-0.5,0-1,0.4-1,1v2.3
		c0,0.5,0.4,1,1,1h6.5c0.5,0,1-0.4,1-1V50.2z"/>
	<path class="st0" d="M173.5,47.6c0-0.9,0.7-1.6,1.6-1.6h7.8c0.9,0,1.6,0.7,1.6,1.6c0,0.9-0.7,1.6-1.6,1.6h-4.5
		c-0.9,0-1.5-0.6-1.6-1.4c-0.1,0.7-0.7,1.3-1.5,1.4c0.8,0.1,1.5,0.8,1.5,1.6v11.6c0,0.9-0.7,1.6-1.6,1.6c-0.9,0-1.6-0.7-1.6-1.6
		V47.6z"/>
	<path class="st0" d="M190.6,64.1c-0.9,0-1.6-0.7-1.6-1.6c0-0.5-0.4-1-1-1c-0.9,0-1.6-0.7-1.6-1.6v-2.3c0-0.9,0.7-1.6,1.6-1.6
		c0.5,0,1-0.4,1-1c0-0.9,0.7-1.6,1.6-1.6h6.5c0.5,0,1-0.4,1-1v-2.3c0-0.5-0.4-1-1-1h-6.5c-0.5,0-1,0.4-1,1c0,0.9-0.7,1.6-1.6,1.6
		c-0.9,0-1.6-0.7-1.6-1.6s0.7-1.6,1.6-1.6c0.5,0,1-0.4,1-1c0-0.9,0.7-1.6,1.6-1.6h6.5c0.9,0,1.6,0.7,1.6,1.6c0,0.5,0.4,1,1,1
		c0.9,0,1.6,0.7,1.6,1.6v12.3c0,0.9-0.7,1.6-1.6,1.6H190.6z M198.1,55.8c-0.1,0.5-0.5,0.8-1,0.8h-6.5c-0.5,0-1,0.4-1,1v2.3
		c0,0.5,0.4,1,1,1h5.8c0.9,0,1.6,0.7,1.6,1.5c0-0.7,0.6-1.4,1.5-1.5c-0.8-0.1-1.5-0.8-1.5-1.6V55.8z"/>
	<path class="st0" d="M210,64.1c-0.9,0-1.6-0.7-1.6-1.6c0-0.5-0.4-1-1-1c-0.9,0-1.6-0.7-1.6-1.6v-9.7c0-0.9,0.7-1.6,1.6-1.6
		c0.5,0,1-0.4,1-1c0-0.9,0.7-1.6,1.6-1.6h6.5c0.9,0,1.6,0.7,1.6,1.6c0,0.5,0.4,1,1,1c0.9,0,1.6,0.7,1.6,1.6s-0.7,1.6-1.6,1.6
		c-0.9,0-1.6-0.7-1.6-1.6c0-0.5-0.4-1-1-1H210c-0.5,0-1,0.4-1,1v9.7c0,0.5,0.4,1,1,1h6.5c0.5,0,1-0.4,1-1c0-0.9,0.7-1.6,1.6-1.6
		c0.9,0,1.6,0.7,1.6,1.6c0,0.9-0.7,1.6-1.6,1.6c-0.5,0-1,0.4-1,1c0,0.9-0.7,1.6-1.6,1.6H210z"/>
	<path class="st0" d="M230.1,64.1c-0.9,0-1.6-0.7-1.6-1.6c0-0.5-0.4-1-1-1c-0.9,0-1.6-0.7-1.6-1.6V48.4c-0.1,0.5-0.5,0.8-1,0.8h-1.3
		c-0.9,0-1.6-0.7-1.6-1.6c0-0.9,0.7-1.6,1.6-1.6h1.3c0.5,0,1-0.4,1-1v-2.6c0-0.9,0.7-1.6,1.6-1.6c0.9,0,1.6,0.7,1.6,1.6V46h4.9
		c0.9,0,1.6,0.7,1.6,1.6c0,0.9-0.7,1.6-1.6,1.6h-3.2c-0.9,0-1.5-0.6-1.6-1.5c-0.1,0.8-0.7,1.4-1.5,1.5c0.8,0.1,1.5,0.8,1.5,1.6v9.1
		c0,0.5,0.4,1,1,1h3.9c0.9,0,1.6,0.7,1.6,1.6s-0.7,1.6-1.6,1.6H230.1z"/>
	<path class="st0" d="M241.7,41.1c0,0.9-0.7,1.6-1.6,1.6c-0.9,0-1.6-0.7-1.6-1.6v-1.3c0-0.9,0.7-1.6,1.6-1.6c0.9,0,1.6,0.7,1.6,1.6
		V41.1z M238.5,47.6c0-0.9,0.7-1.6,1.6-1.6c0.9,0,1.6,0.7,1.6,1.6v14.9c0,0.9-0.7,1.6-1.6,1.6c-0.9,0-1.6-0.7-1.6-1.6V47.6z"/>
	<path class="st0" d="M250.8,64.1c-0.9,0-1.6-0.7-1.6-1.6c0-0.5-0.4-1-1-1c-0.9,0-1.6-0.7-1.6-1.6v-9.7c0-0.9,0.7-1.6,1.6-1.6
		c0.5,0,1-0.4,1-1c0-0.9,0.7-1.6,1.6-1.6h6.5c0.9,0,1.6,0.7,1.6,1.6c0,0.5,0.4,1,1,1c0.9,0,1.6,0.7,1.6,1.6v9.7
		c0,0.9-0.7,1.6-1.6,1.6c-0.5,0-1,0.4-1,1c0,0.9-0.7,1.6-1.6,1.6H250.8z M258.3,50.2c0-0.5-0.4-1-1-1h-6.5c-0.5,0-1,0.4-1,1v9.7
		c0,0.5,0.4,1,1,1h6.5c0.5,0,1-0.4,1-1V50.2z"/>
	<path class="st0" d="M278,50.2c0-0.5-0.4-1-1-1h-5.8c-0.9,0-1.5-0.6-1.6-1.4c-0.1,0.7-0.7,1.3-1.5,1.4c0.8,0.1,1.5,0.8,1.5,1.6
		v11.6c0,0.9-0.7,1.6-1.6,1.6c-0.9,0-1.6-0.7-1.6-1.6V47.6c0-0.9,0.7-1.6,1.6-1.6h9.1c0.9,0,1.6,0.7,1.6,1.6c0,0.5,0.4,1,1,1
		c0.9,0,1.6,0.7,1.6,1.6v12.3c0,0.9-0.7,1.6-1.6,1.6s-1.6-0.7-1.6-1.6V50.2z"/>
	<path class="st0" d="M289.3,64.1c-0.9,0-1.6-0.7-1.6-1.6c0-0.5-0.4-1-1-1c-0.9,0-1.6-0.7-1.6-1.6c0-0.9,0.7-1.6,1.6-1.6
		c0.9,0,1.6,0.7,1.6,1.6c0,0.5,0.4,1,1,1h6.5c0.5,0,1-0.4,1-1v-2.3c0-0.5-0.4-1-1-1h-6.5c-0.9,0-1.6-0.7-1.6-1.6c0-0.5-0.4-1-1-1
		c-0.9,0-1.6-0.7-1.6-1.6v-2.3c0-0.9,0.7-1.6,1.6-1.6c0.5,0,1-0.4,1-1c0-0.9,0.7-1.6,1.6-1.6h6.5c0.9,0,1.6,0.7,1.6,1.6
		c0,0.5,0.4,1,1,1c0.9,0,1.6,0.7,1.6,1.6s-0.7,1.6-1.6,1.6c-0.9,0-1.6-0.7-1.6-1.6c0-0.5-0.4-1-1-1h-6.5c-0.5,0-1,0.4-1,1v2.3
		c0,0.5,0.4,1,1,1h6.5c0.9,0,1.6,0.7,1.6,1.6c0,0.5,0.4,1,1,1c0.9,0,1.6,0.7,1.6,1.6v2.3c0,0.9-0.7,1.6-1.6,1.6c-0.5,0-1,0.4-1,1
		c0,0.9-0.7,1.6-1.6,1.6H289.3z"/>
	<path class="st0" d="M3.9,79.3c0,0.9-0.7,1.6-1.6,1.6c-0.9,0-1.6-0.7-1.6-1.6V78c0-0.9,0.7-1.6,1.6-1.6c0.9,0,1.6,0.7,1.6,1.6V79.3
		z M0.6,85.8c0-0.9,0.7-1.6,1.6-1.6c0.9,0,1.6,0.7,1.6,1.6v14.9c0,0.9-0.7,1.6-1.6,1.6c-0.9,0-1.6-0.7-1.6-1.6V85.8z"/>
	<path class="st0" d="M20.7,88.4c0-0.5-0.4-1-1-1h-5.8c-0.9,0-1.5-0.6-1.6-1.4c-0.1,0.7-0.7,1.3-1.5,1.4c0.8,0.1,1.5,0.8,1.5,1.6
		v11.6c0,0.9-0.7,1.6-1.6,1.6c-0.9,0-1.6-0.7-1.6-1.6V85.8c0-0.9,0.7-1.6,1.6-1.6h9.1c0.9,0,1.6,0.7,1.6,1.6c0,0.5,0.4,1,1,1
		c0.9,0,1.6,0.7,1.6,1.6v12.3c0,0.9-0.7,1.6-1.6,1.6s-1.6-0.7-1.6-1.6V88.4z"/>
	<path class="st0" d="M43.4,102.3c-0.9,0-1.6-0.7-1.6-1.6c0-0.5-0.4-1-1-1c-0.9,0-1.6-0.7-1.6-1.6V83.2c0-0.9,0.7-1.6,1.6-1.6
		c0.5,0,1-0.4,1-1c0-0.9,0.7-1.6,1.6-1.6h10.4c0.9,0,1.6,0.7,1.6,1.6c0,0.5,0.4,1,1,1c0.9,0,1.6,0.7,1.6,1.6v14.9
		c0,0.9-0.7,1.6-1.6,1.6c-0.5,0-1,0.4-1,1c0,0.9-0.7,1.6-1.6,1.6H43.4z M54.7,83.2c0-0.5-0.4-1-1-1H43.4c-0.5,0-1,0.4-1,1v14.9
		c0,0.5,0.4,1,1,1h10.4c0.5,0,1-0.4,1-1V83.2z"/>
	<path class="st0" d="M74.8,88.4c0-0.5-0.4-1-1-1H68c-0.9,0-1.5-0.6-1.6-1.4c-0.1,0.7-0.7,1.3-1.5,1.4c0.8,0.1,1.5,0.8,1.5,1.6v11.6
		c0,0.9-0.7,1.6-1.6,1.6c-0.9,0-1.6-0.7-1.6-1.6V85.8c0-0.9,0.7-1.6,1.6-1.6h9.1c0.9,0,1.6,0.7,1.6,1.6c0,0.5,0.4,1,1,1
		c0.9,0,1.6,0.7,1.6,1.6v12.3c0,0.9-0.7,1.6-1.6,1.6c-0.9,0-1.6-0.7-1.6-1.6V88.4z"/>
	<path class="st0" d="M82.8,78c0-0.9,0.7-1.6,1.6-1.6c0.9,0,1.6,0.7,1.6,1.6v22.7c0,0.9-0.7,1.6-1.6,1.6c-0.9,0-1.6-0.7-1.6-1.6V78z
		"/>
	<path class="st0" d="M94.5,79.3c0,0.9-0.7,1.6-1.6,1.6c-0.9,0-1.6-0.7-1.6-1.6V78c0-0.9,0.7-1.6,1.6-1.6c0.9,0,1.6,0.7,1.6,1.6
		V79.3z M91.3,85.8c0-0.9,0.7-1.6,1.6-1.6c0.9,0,1.6,0.7,1.6,1.6v14.9c0,0.9-0.7,1.6-1.6,1.6c-0.9,0-1.6-0.7-1.6-1.6V85.8z"/>
	<path class="st0" d="M111.3,88.4c0-0.5-0.4-1-1-1h-5.8c-0.9,0-1.5-0.6-1.6-1.4c-0.1,0.7-0.7,1.3-1.5,1.4c0.8,0.1,1.5,0.8,1.5,1.6
		v11.6c0,0.9-0.7,1.6-1.6,1.6c-0.9,0-1.6-0.7-1.6-1.6V85.8c0-0.9,0.7-1.6,1.6-1.6h9.1c0.9,0,1.6,0.7,1.6,1.6c0,0.5,0.4,1,1,1
		c0.9,0,1.6,0.7,1.6,1.6v12.3c0,0.9-0.7,1.6-1.6,1.6c-0.9,0-1.6-0.7-1.6-1.6V88.4z"/>
	<path class="st0" d="M123.3,102.3c-0.9,0-1.6-0.7-1.6-1.6c0-0.5-0.4-1-1-1c-0.9,0-1.6-0.7-1.6-1.6v-9.7c0-0.9,0.7-1.6,1.6-1.6
		c0.5,0,1-0.4,1-1c0-0.9,0.7-1.6,1.6-1.6h6.5c0.9,0,1.6,0.7,1.6,1.6c0,0.5,0.4,1,1,1c0.9,0,1.6,0.7,1.6,1.6v2.3
		c0,0.9-0.7,1.6-1.6,1.6c-0.5,0-1,0.4-1,1c0,0.9-0.7,1.6-1.6,1.6h-5.8c-0.9,0-1.5-0.6-1.6-1.5c-0.1,0.8-0.7,1.4-1.5,1.5
		c0.8,0.1,1.5,0.8,1.5,1.6v1.6c0,0.5,0.4,1,1,1h6.5c0.5,0,1-0.4,1-1c0-0.9,0.7-1.6,1.6-1.6c0.9,0,1.6,0.7,1.6,1.6
		c0,0.9-0.7,1.6-1.6,1.6c-0.5,0-1,0.4-1,1c0,0.9-0.7,1.6-1.6,1.6H123.3z M130.7,88.4c0-0.5-0.4-1-1-1h-6.5c-0.5,0-1,0.4-1,1v2.3
		c0,0.5,0.4,1,1,1h6.5c0.5,0,1-0.4,1-1V88.4z"/>
	<path class="st0" d="M152.8,102.3c-0.9,0-1.6-0.7-1.6-1.6c0-0.5-0.4-1-1-1c-0.9,0-1.6-0.7-1.6-1.6V83.2c0-0.9,0.7-1.6,1.6-1.6
		c0.5,0,1-0.4,1-1c0-0.9,0.7-1.6,1.6-1.6h9.1c0.9,0,1.6,0.7,1.6,1.6c0,0.5,0.4,1,1,1c0.9,0,1.6,0.7,1.6,1.6c0,0.9-0.7,1.6-1.6,1.6
		c-0.9,0-1.6-0.7-1.6-1.6c0-0.5-0.4-1-1-1h-9.1c-0.5,0-1,0.4-1,1v14.9c0,0.5,0.4,1,1,1h8.4c0.8,0,1.5,0.7,1.6,1.5
		c0.1-0.8,0.7-1.4,1.5-1.5c-0.8-0.1-1.5-0.8-1.5-1.6v-3.6c0-0.8,0.6-1.5,1.5-1.6c-0.8-0.1-1.4-0.7-1.5-1.5c-0.1,0.8-0.8,1.5-1.6,1.5
		h-3.2c-0.9,0-1.6-0.7-1.6-1.6c0-0.9,0.7-1.6,1.6-1.6h6.5c0.9,0,1.6,0.7,1.6,1.6v10c0,0.9-0.7,1.6-1.6,1.6H152.8z"/>
	<path class="st0" d="M174.1,102.3c-0.9,0-1.6-0.7-1.6-1.6c0-0.5-0.4-1-1-1c-0.9,0-1.6-0.7-1.6-1.6v-2.3c0-0.9,0.7-1.6,1.6-1.6
		c0.5,0,1-0.4,1-1c0-0.9,0.7-1.6,1.6-1.6h6.5c0.5,0,1-0.4,1-1v-2.3c0-0.5-0.4-1-1-1h-6.5c-0.5,0-1,0.4-1,1c0,0.9-0.7,1.6-1.6,1.6
		c-0.9,0-1.6-0.7-1.6-1.6c0-0.9,0.7-1.6,1.6-1.6c0.5,0,1-0.4,1-1c0-0.9,0.7-1.6,1.6-1.6h6.5c0.9,0,1.6,0.7,1.6,1.6c0,0.5,0.4,1,1,1
		c0.9,0,1.6,0.7,1.6,1.6v12.3c0,0.9-0.7,1.6-1.6,1.6H174.1z M181.6,94c-0.1,0.5-0.5,0.8-1,0.8h-6.5c-0.5,0-1,0.4-1,1v2.3
		c0,0.5,0.4,1,1,1h5.8c0.9,0,1.6,0.7,1.6,1.5c0-0.7,0.6-1.4,1.5-1.5c-0.8-0.1-1.5-0.8-1.5-1.6V94z"/>
	<path class="st0" d="M210.4,88.4c0-0.5-0.4-1-1-1h-5.2c-0.5,0-1,0.4-1,1v12.3c0,0.9-0.7,1.6-1.6,1.6c-0.9,0-1.6-0.7-1.6-1.6V88.4
		c0-0.5-0.4-1-1-1h-4.5c-0.9,0-1.5-0.6-1.6-1.4c-0.1,0.7-0.7,1.3-1.5,1.4c0.8,0.1,1.5,0.8,1.5,1.6v11.6c0,0.9-0.7,1.6-1.6,1.6
		c-0.9,0-1.6-0.7-1.6-1.6V85.8c0-0.9,0.7-1.6,1.6-1.6h7.8c0.9,0,1.6,0.7,1.6,1.6c0,0.5,0.4,1,1,1c0.5,0,1-0.4,1-1
		c0-0.9,0.7-1.6,1.6-1.6h5.2c0.9,0,1.6,0.7,1.6,1.6c0,0.5,0.4,1,1,1c0.9,0,1.6,0.7,1.6,1.6v12.3c0,0.9-0.7,1.6-1.6,1.6
		c-0.9,0-1.6-0.7-1.6-1.6V88.4z"/>
	<path class="st0" d="M222.3,102.3c-0.9,0-1.6-0.7-1.6-1.6c0-0.5-0.4-1-1-1c-0.9,0-1.6-0.7-1.6-1.6v-9.7c0-0.9,0.7-1.6,1.6-1.6
		c0.5,0,1-0.4,1-1c0-0.9,0.7-1.6,1.6-1.6h6.5c0.9,0,1.6,0.7,1.6,1.6c0,0.5,0.4,1,1,1c0.9,0,1.6,0.7,1.6,1.6v2.3
		c0,0.9-0.7,1.6-1.6,1.6c-0.5,0-1,0.4-1,1c0,0.9-0.7,1.6-1.6,1.6H223c-0.9,0-1.5-0.6-1.6-1.5c-0.1,0.8-0.7,1.4-1.5,1.5
		c0.8,0.1,1.5,0.8,1.5,1.6v1.6c0,0.5,0.4,1,1,1h6.5c0.5,0,1-0.4,1-1c0-0.9,0.7-1.6,1.6-1.6c0.9,0,1.6,0.7,1.6,1.6
		c0,0.9-0.7,1.6-1.6,1.6c-0.5,0-1,0.4-1,1c0,0.9-0.7,1.6-1.6,1.6H222.3z M229.8,88.4c0-0.5-0.4-1-1-1h-6.5c-0.5,0-1,0.4-1,1v2.3
		c0,0.5,0.4,1,1,1h6.5c0.5,0,1-0.4,1-1V88.4z"/>
	<path class="st0" d="M240.5,102.3c-0.9,0-1.6-0.7-1.6-1.6c0-0.5-0.4-1-1-1c-0.9,0-1.6-0.7-1.6-1.6c0-0.9,0.7-1.6,1.6-1.6
		c0.9,0,1.6,0.7,1.6,1.6c0,0.5,0.4,1,1,1h6.5c0.5,0,1-0.4,1-1v-2.3c0-0.5-0.4-1-1-1h-6.5c-0.9,0-1.6-0.7-1.6-1.6c0-0.5-0.4-1-1-1
		c-0.9,0-1.6-0.7-1.6-1.6v-2.3c0-0.9,0.7-1.6,1.6-1.6c0.5,0,1-0.4,1-1c0-0.9,0.7-1.6,1.6-1.6h6.5c0.9,0,1.6,0.7,1.6,1.6
		c0,0.5,0.4,1,1,1c0.9,0,1.6,0.7,1.6,1.6c0,0.9-0.7,1.6-1.6,1.6c-0.9,0-1.6-0.7-1.6-1.6c0-0.5-0.4-1-1-1h-6.5c-0.5,0-1,0.4-1,1v2.3
		c0,0.5,0.4,1,1,1h6.5c0.9,0,1.6,0.7,1.6,1.6c0,0.5,0.4,1,1,1c0.9,0,1.6,0.7,1.6,1.6v2.3c0,0.9-0.7,1.6-1.6,1.6c-0.5,0-1,0.4-1,1
		c0,0.9-0.7,1.6-1.6,1.6H240.5z"/>
</g>
</svg>
